<svg width="32" height="32" viewBox="0 0 32 32" fill="none" xmlns="http://www.w3.org/2000/svg">
<path d="M16 16L32 32H16V16Z" fill="#B5D3C1"/>
<path fill-rule="evenodd" clip-rule="evenodd" d="M24 3.05176e-05H16V8.00003V16H24H24.0338V16C28.4365 15.9818 32 12.4071 32 8.00003C32 3.59301 28.4365 0.0182872 24.0338 0.000100224V3.05176e-05H24Z" fill="#C2BEEB"/>
<path fill-rule="evenodd" clip-rule="evenodd" d="M-3.49691e-07 7.99998L0 16L8 16L16 16L16 7.99998L16 7.96623L15.9999 7.96623C15.9817 3.56348 12.407 -1.58011e-05 8 -1.56085e-05C3.59298 -1.54158e-05 0.0182559 3.56348 6.93534e-05 7.96623L-3.51166e-07 7.96623L-3.49691e-07 7.99998Z" fill="#F78181"/>
<ellipse cx="8" cy="24" rx="8" ry="8" fill="#B4DDFF"/>
</svg>
